<svg width="128" height="128" viewBox="0 0 128 128" fill="none" xmlns="http://www.w3.org/2000/svg">
<path d="M64 12.7998C35.7248 12.7998 12.8 35.7246 12.8 63.9998C12.8 92.275 35.7248 115.2 64 115.2C92.2752 115.2 115.2 92.275 115.2 63.9998C115.2 35.7246 92.2752 12.7998 64 12.7998ZM70.0331 63.9998C70.0331 63.9998 83.4262 77.3929 84.0832 78.0499C85.7515 79.7182 85.7515 82.419 84.0832 84.083C82.415 85.7513 79.7142 85.7513 78.0502 84.083C77.3931 83.4302 64 70.0329 64 70.0329C64 70.0329 50.607 83.4259 49.9499 84.083C48.2816 85.7513 45.5808 85.7513 43.9168 84.083C42.2486 82.4147 42.2486 79.7139 43.9168 78.0499C44.5696 77.3929 57.967 63.9998 57.967 63.9998C57.967 63.9998 44.5739 50.6067 43.9168 49.9497C42.2486 48.2814 42.2486 45.5806 43.9168 43.9166C45.5851 42.2483 48.2859 42.2483 49.9499 43.9166C50.607 44.5694 64 57.9667 64 57.9667C64 57.9667 77.3931 44.5737 78.0502 43.9166C79.7184 42.2483 82.4192 42.2483 84.0832 43.9166C85.7515 45.5849 85.7515 48.2857 84.0832 49.9497C83.4304 50.6067 70.0331 63.9998 70.0331 63.9998Z" fill="#222324"/>
</svg>
