<svg width="128" height="128" viewBox="0 0 128 128" fill="none" xmlns="http://www.w3.org/2000/svg">
<path d="M32.5 17.0669C29.2768 17.0669 26.3053 18.9061 24.8667 21.7919L17.0667 37.3919V38.4002V51.2002V102.4C17.0667 107.115 20.8853 110.934 25.6 110.934H102.4C107.115 110.934 110.933 107.115 110.933 102.4V51.2002V38.4002V37.3919L103.125 21.7836C101.684 18.9041 98.7191 17.0669 95.5 17.0669H32.5ZM32.5083 25.6002H95.4917L101.892 38.4002H26.1083L32.5083 25.6002ZM64 51.2002C66.3595 51.2002 68.2667 53.1117 68.2667 55.4669V83.5669L73.7833 78.0502C75.4516 76.382 78.1484 76.382 79.8167 78.0502C81.4849 79.7185 81.4849 82.4153 79.8167 84.0836L67.0167 96.8836C66.1847 97.7156 65.0923 98.1336 64 98.1336C62.9077 98.1336 61.8153 97.7156 60.9833 96.8836L48.1833 84.0836C46.5151 82.4153 46.5151 79.7185 48.1833 78.0502C49.8516 76.382 52.5484 76.382 54.2167 78.0502L59.7333 83.5669V55.4669C59.7333 53.1117 61.6405 51.2002 64 51.2002Z" fill="#222324"/>
</svg>
