<svg width="128" height="128" viewBox="0 0 128 128" fill="none" xmlns="http://www.w3.org/2000/svg">
<path d="M60.1253 10.6665C57.8799 10.6665 55.8724 12.0703 55.1044 14.1769L50.4065 27.1144L75.0628 51.7707L90.0003 18.1665C91.5683 14.6412 88.9866 10.6665 85.1253 10.6665H60.1253ZM19.719 13.5207C18.3544 13.5207 16.9804 14.0405 15.9378 15.0832C13.8524 17.1685 13.8524 20.5499 15.9378 22.6353L42.4169 49.104L37.6669 62.1769C36.3976 65.6543 38.976 69.3332 42.6774 69.3332H62.6461L63.6149 70.3123L47.4065 112C46.3985 115.285 47.2335 117.232 50.6149 117.333C52.3215 117.333 53.9351 116.517 54.9378 115.135L77.4586 84.1561L107.063 113.75C109.143 115.835 112.519 115.835 114.604 113.75C116.69 111.67 116.69 108.294 114.604 106.208L23.4794 15.0832C22.4394 14.0405 21.0837 13.5207 19.719 13.5207ZM81.9586 58.6665L90.0419 66.7498C92.1753 63.2565 89.7291 58.6665 85.5211 58.6665H81.9586Z" fill="#222324"/>
</svg>
