<svg width="128" height="128" viewBox="0 0 128 128" fill="none" xmlns="http://www.w3.org/2000/svg">
<path d="M64 12.8C35.7248 12.8 12.8 35.7248 12.8 64C12.8 92.2752 35.7248 115.2 64 115.2C92.2752 115.2 115.2 92.2752 115.2 64C115.2 35.7248 92.2752 12.8 64 12.8ZM64 21.3334C87.5648 21.3334 106.667 40.4352 106.667 64C106.667 87.5648 87.5648 106.667 64 106.667C40.4352 106.667 21.3334 87.5648 21.3334 64C21.3334 40.4352 40.4352 21.3334 64 21.3334ZM59.7334 42.6667C58.6411 42.6667 57.5487 43.0847 56.7167 43.9167L39.65 60.9834C37.9818 62.6516 37.9818 65.3484 39.65 67.0167L56.7167 84.0834C58.385 85.7516 61.0818 85.7516 62.75 84.0834C64.4183 82.4151 64.4183 79.7183 62.75 78.05L52.9667 68.2667H85.3334C87.6886 68.2667 89.6 66.3595 89.6 64C89.6 61.6406 87.6886 59.7334 85.3334 59.7334H52.9667L62.75 49.95C64.4183 48.2818 64.4183 45.585 62.75 43.9167C61.918 43.0847 60.8256 42.6667 59.7334 42.6667Z" fill="#222324"/>
</svg>
