<svg width="128" height="128" viewBox="0 0 128 128" fill="none" xmlns="http://www.w3.org/2000/svg">
<path d="M76 12C53.9531 12 36 29.9531 36 52C36 61.5938 39.4063 70.3906 45.0625 77.2969L13.1719 109.172L18.8281 114.828L50.7031 82.9375C57.6094 88.5938 66.4063 92 76 92C98.0469 92 116 74.0469 116 52C116 29.9531 98.0469 12 76 12ZM76 20C93.7188 20 108 34.2813 108 52C108 69.7188 93.7188 84 76 84C58.2813 84 44 69.7188 44 52C44 34.2813 58.2813 20 76 20ZM64 40C61.7969 40 60 41.7969 60 44C60 46.2031 61.7969 48 64 48C66.2031 48 68 46.2031 68 44C68 41.7969 66.2031 40 64 40ZM88 40C85.7969 40 84 41.7969 84 44C84 46.2031 85.7969 48 88 48C90.2031 48 92 46.2031 92 44C92 41.7969 90.2031 40 88 40ZM76 56C67.1719 56 61.375 60.9844 61.375 60.9844C60.25 61.8906 59.7188 63.3594 59.9844 64.7969C60.2344 66.2188 61.2656 67.4063 62.6406 67.8594C64.0156 68.3281 65.5469 68 66.625 67.0156C66.625 67.0156 70.0625 64 76 64C81.9375 64 85.375 67.0156 85.375 67.0156C86.4531 68 87.9844 68.3281 89.3594 67.8594C90.7344 67.4063 91.7656 66.2188 92.0156 64.7969C92.2813 63.3594 91.75 61.8906 90.625 60.9844C90.625 60.9844 84.8281 56 76 56Z" fill="#222324"/>
</svg>
