<svg width="128" height="128" viewBox="0 0 128 128" fill="none" xmlns="http://www.w3.org/2000/svg">
<path d="M30.6667 16C28.112 16 25.9228 17.8109 25.4375 20.3229L16.1042 68.3229C16.0348 68.6536 16 68.992 16 69.3333V101.333C16 107.216 20.784 112 26.6667 112H101.333C107.216 112 112 107.216 112 101.333V69.3333C112 68.992 111.965 68.6536 111.896 68.3229L102.563 20.3229C102.077 17.8109 99.888 16 97.3333 16H79.0833L89.75 26.6667H92.9375L101.229 69.3333H85.3333C83.04 69.3333 81.0015 70.7978 80.2708 72.9792L77.0938 82.5208C76.5338 84.1955 74.9582 85.3333 73.1875 85.3333H54.8125C53.0418 85.3333 51.4663 84.2008 50.9063 82.5208L47.7188 72.9792C46.9934 70.8032 44.96 69.3333 42.6667 69.3333H26.7708L35.0625 26.6667H38.25L48.9167 16H30.6667ZM64 16L42.6667 37.3333H58.6667V58.6667H69.3333V37.3333H85.3333L64 16Z" fill="#222324"/>
</svg>
