<svg width="128" height="128" viewBox="0 0 128 128" fill="none" xmlns="http://www.w3.org/2000/svg">
<path d="M54.6667 16C33.3748 16 16 33.3748 16 54.6667C16 75.9585 33.3748 93.3333 54.6667 93.3333C63.3951 93.3333 71.4371 90.3814 77.9219 85.4688L102.896 110.438C103.387 110.949 103.976 111.358 104.627 111.64C105.279 111.921 105.98 112.07 106.689 112.077C107.399 112.084 108.103 111.95 108.76 111.682C109.416 111.413 110.013 111.017 110.515 110.515C111.017 110.013 111.413 109.416 111.682 108.76C111.95 108.103 112.084 107.399 112.077 106.689C112.07 105.98 111.921 105.279 111.64 104.627C111.358 103.976 110.949 103.387 110.438 102.896L85.4688 77.9219C90.3814 71.4371 93.3333 63.3951 93.3333 54.6667C93.3333 33.3748 75.9585 16 54.6667 16ZM54.6667 26.6667C70.1938 26.6667 82.6667 39.1395 82.6667 54.6667C82.6667 62.1219 79.7708 68.8549 75.0625 73.8594C74.6042 74.1912 74.2016 74.5938 73.8698 75.0521C68.8643 79.7664 62.1272 82.6667 54.6667 82.6667C39.1395 82.6667 26.6667 70.1938 26.6667 54.6667C26.6667 39.1395 39.1395 26.6667 54.6667 26.6667Z" fill="#222324"/>
</svg>
