<svg width="128" height="128" viewBox="0 0 128 128" fill="none" xmlns="http://www.w3.org/2000/svg">
<path d="M51.552 10.6667L48.9374 24.1251C44.5419 25.7828 40.5054 28.1064 36.9687 31.0105L24.0416 26.5522L11.5833 48.1147L21.9374 57.1147C21.5394 59.5585 21.3333 61.8233 21.3333 64.0001C21.3333 66.1802 21.5456 68.4408 21.9374 70.8855V70.8959L11.5833 79.8959L24.0416 101.448L36.9583 97.0001C40.4954 99.9058 44.5409 102.216 48.9374 103.875L51.552 117.333H76.4478L79.0624 103.875C83.4608 102.216 87.4927 99.8965 91.0312 96.9897L103.958 101.448L116.406 79.8959L106.062 70.8855C106.46 68.4416 106.667 66.1769 106.667 64.0001C106.667 61.8265 106.459 59.5647 106.062 57.1251V57.1147L116.417 48.1042L103.958 26.5522L91.0416 31.0001C87.5045 28.0944 83.4589 25.7837 79.0624 24.1251L76.4478 10.6667H51.552ZM60.3437 21.3334H67.6562L69.7291 32.0001L75.2916 34.1042C78.6445 35.3679 81.6568 37.1028 84.2707 39.2501L88.8749 43.0209L99.1249 39.5001L102.781 45.823L94.5937 52.948L95.5312 58.8126V58.823C95.8573 60.8227 95.9999 62.5002 95.9999 64.0001C95.9999 65.5 95.8573 67.1772 95.5312 69.1772L94.5832 75.0417L102.771 82.1668L99.1145 88.5001L88.8749 84.9688L84.2603 88.7501C81.6464 90.8974 78.6445 92.6322 75.2916 93.8959H75.2812L69.7187 96.0001L67.6457 106.667H60.3437L58.2707 96.0001L52.7082 93.8959C49.3554 92.6322 46.343 90.8974 43.7291 88.7501L39.1249 84.9793L28.8749 88.5001L25.2187 82.1772L33.4166 75.0417L32.4687 69.198V69.1876C32.1472 67.1792 31.9999 65.497 31.9999 64.0001C31.9999 62.5002 32.1425 60.8229 32.4687 58.823L33.4166 52.9584L25.2187 45.8334L28.8749 39.5001L39.1249 43.0313L43.7291 39.2501C46.343 37.1028 49.3554 35.3679 52.7082 34.1042L58.2707 32.0001L60.3437 21.3334ZM63.9999 42.6667C52.2851 42.6667 42.6666 52.2853 42.6666 64.0001C42.6666 75.7149 52.2851 85.3334 63.9999 85.3334C75.7147 85.3334 85.3332 75.7149 85.3332 64.0001C85.3332 52.2853 75.7147 42.6667 63.9999 42.6667ZM63.9999 53.3334C69.9278 53.3334 74.6666 58.0722 74.6666 64.0001C74.6666 69.928 69.9278 74.6667 63.9999 74.6667C58.072 74.6667 53.3332 69.928 53.3332 64.0001C53.3332 58.0722 58.072 53.3334 63.9999 53.3334Z" fill='#ff0000'/>
</svg>
