<svg width="128" height="128" viewBox="0 0 128 128" fill="none" xmlns="http://www.w3.org/2000/svg">
<path d="M30.6666 16.0004C22.6139 16.0004 15.9999 22.6143 15.9999 30.6671V38.6671C15.9924 39.1971 16.0904 39.7234 16.288 40.2152C16.4857 40.7071 16.7791 41.1548 17.1513 41.5323C17.5235 41.9098 17.967 42.2095 18.456 42.4141C18.945 42.6187 19.4698 42.724 19.9999 42.724C20.53 42.724 21.0548 42.6187 21.5439 42.4141C22.0329 42.2095 22.4764 41.9098 22.8486 41.5323C23.2207 41.1548 23.5142 40.7071 23.7118 40.2152C23.9095 39.7234 24.0074 39.1971 23.9999 38.6671V30.6671C23.9999 26.9385 26.938 24.0004 30.6666 24.0004H38.6666C39.1966 24.0079 39.7229 23.91 40.2148 23.7123C40.7066 23.5147 41.1543 23.2212 41.5318 22.849C41.9093 22.4769 42.209 22.0334 42.4136 21.5443C42.6182 21.0553 42.7236 20.5305 42.7236 20.0004C42.7236 19.4703 42.6182 18.9455 42.4136 18.4565C42.209 17.9674 41.9093 17.5239 41.5318 17.1518C41.1543 16.7796 40.7066 16.4861 40.2148 16.2885C39.7229 16.0908 39.1966 15.9929 38.6666 16.0004H30.6666ZM89.3333 16.0004C88.8032 15.9929 88.277 16.0908 87.7851 16.2885C87.2932 16.4861 86.8455 16.7796 86.4681 17.1518C86.0906 17.5239 85.7908 17.9674 85.5862 18.4565C85.3817 18.9455 85.2763 19.4703 85.2763 20.0004C85.2763 20.5305 85.3817 21.0553 85.5862 21.5443C85.7908 22.0334 86.0906 22.4769 86.4681 22.849C86.8455 23.2212 87.2932 23.5147 87.7851 23.7123C88.277 23.91 88.8032 24.0079 89.3333 24.0004H97.3333C101.062 24.0004 104 26.9385 104 30.6671V38.6671C103.992 39.1971 104.09 39.7234 104.288 40.2152C104.486 40.7071 104.779 41.1548 105.151 41.5323C105.523 41.9098 105.967 42.2095 106.456 42.4141C106.945 42.6187 107.47 42.724 108 42.724C108.53 42.724 109.055 42.6187 109.544 42.4141C110.033 42.2095 110.476 41.9098 110.849 41.5323C111.221 41.1548 111.514 40.7071 111.712 40.2152C111.91 39.7234 112.007 39.1971 112 38.6671V30.6671C112 22.6143 105.386 16.0004 97.3333 16.0004H89.3333ZM49.4114 34.6671C41.3143 34.6671 34.6666 41.3147 34.6666 49.4119V78.5889C34.6666 86.6861 41.3143 93.3337 49.4114 93.3337H78.5885C86.6856 93.3337 93.3333 86.6861 93.3333 78.5889V49.4119C93.3333 41.3147 86.6856 34.6671 78.5885 34.6671H49.4114ZM49.4114 42.6671H78.5885C82.3633 42.6671 85.3333 45.637 85.3333 49.4119V78.5889C85.3333 82.3638 82.3633 85.3337 78.5885 85.3337H49.4114C45.6365 85.3337 42.6666 82.3638 42.6666 78.5889V49.4119C42.6666 45.637 45.6365 42.6671 49.4114 42.6671ZM63.9999 50.6671C56.6373 50.6671 50.6666 56.6377 50.6666 64.0004C50.6666 71.3631 56.6373 77.3337 63.9999 77.3337C71.3626 77.3337 77.3333 71.3631 77.3333 64.0004C77.3333 56.6377 71.3626 50.6671 63.9999 50.6671ZM19.9374 85.2764C18.8775 85.293 17.8674 85.7296 17.1291 86.4903C16.3909 87.2511 15.9847 88.2738 15.9999 89.3337V97.3337C15.9999 105.386 22.6139 112 30.6666 112H38.6666C39.1966 112.008 39.7229 111.91 40.2148 111.712C40.7066 111.515 41.1543 111.221 41.5318 110.849C41.9093 110.477 42.209 110.033 42.4136 109.544C42.6182 109.055 42.7236 108.53 42.7236 108C42.7236 107.47 42.6182 106.945 42.4136 106.456C42.209 105.967 41.9093 105.524 41.5318 105.152C41.1543 104.78 40.7066 104.486 40.2148 104.288C39.7229 104.091 39.1966 103.993 38.6666 104H30.6666C26.938 104 23.9999 101.062 23.9999 97.3337V89.3337C24.0076 88.7984 23.9077 88.2669 23.7062 87.7708C23.5047 87.2748 23.2057 86.8242 22.8268 86.4458C22.448 86.0675 21.997 85.769 21.5007 85.5681C21.0044 85.3673 20.4728 85.2681 19.9374 85.2764V85.2764ZM107.937 85.2764C106.877 85.293 105.867 85.7296 105.129 86.4903C104.391 87.2511 103.985 88.2738 104 89.3337V97.3337C104 101.062 101.062 104 97.3333 104H89.3333C88.8032 103.993 88.277 104.091 87.7851 104.288C87.2932 104.486 86.8455 104.78 86.4681 105.152C86.0906 105.524 85.7908 105.967 85.5862 106.456C85.3817 106.945 85.2763 107.47 85.2763 108C85.2763 108.53 85.3817 109.055 85.5862 109.544C85.7908 110.033 86.0906 110.477 86.4681 110.849C86.8455 111.221 87.2932 111.515 87.7851 111.712C88.277 111.91 88.8032 112.008 89.3333 112H97.3333C105.386 112 112 105.386 112 97.3337V89.3337C112.008 88.7984 111.908 88.2669 111.706 87.7708C111.505 87.2748 111.206 86.8242 110.827 86.4458C110.448 86.0675 109.997 85.769 109.501 85.5681C109.004 85.3673 108.473 85.2681 107.937 85.2764V85.2764Z" fill="#222324"/>
</svg>
