<svg width="128" height="128" viewBox="0 0 128 128" fill="none" xmlns="http://www.w3.org/2000/svg">
<path d="M25.6001 17.0669C20.8854 17.0669 17.0668 20.8856 17.0668 25.6002V68.2669C17.0668 72.9816 20.8854 76.8002 25.6001 76.8002H51.2001V102.4C51.2001 107.064 55.0697 110.934 59.7334 110.934H102.4C107.064 110.934 110.933 107.064 110.933 102.4V59.7336C110.933 55.0698 107.064 51.2002 102.4 51.2002H76.8001V25.6002C76.8001 20.8856 72.9815 17.0669 68.2668 17.0669H25.6001ZM76.8001 59.7336H102.4V102.4H59.7334V76.8002H68.2668C72.9815 76.8002 76.8001 72.9816 76.8001 68.2669V59.7336ZM8.53345 85.3336V102.4C8.53345 107.064 12.403 110.934 17.0668 110.934H29.8668V119.467L42.6668 106.667L29.8668 93.8669V102.4H17.0668V85.3336H8.53345Z" fill="#222324"/>
</svg>
