<svg width="128" height="128" viewBox="0 0 128 128" fill="none" xmlns="http://www.w3.org/2000/svg">
<path d="M60 16C57.9063 16 55.7656 16.7344 54.25 18.25C52.7344 19.7656 52 21.9063 52 24V28H28V36H32V100C32 106.578 37.4219 112 44 112H92C98.5781 112 104 106.578 104 100V36H108V28H84V24C84 21.9063 83.2656 19.7656 81.75 18.25C80.2344 16.7344 78.0938 16 76 16H60ZM60 24H76V28H60V24ZM40 36H96V100C96 102.219 94.2188 104 92 104H44C41.7813 104 40 102.219 40 100V36ZM48 48V92H56V48H48ZM64 48V92H72V48H64ZM80 48V92H88V48H80Z" fill="#222324"/>
</svg>
