<svg width="128" height="128" viewBox="0 0 128 128" fill="none" xmlns="http://www.w3.org/2000/svg">
<path d="M17.92 17.9199C13.6858 17.9199 10.24 21.3657 10.24 25.5999V102.4C10.24 106.634 13.6858 110.08 17.92 110.08H67.245C66.093 108.48 65.092 106.77 64.26 104.96H17.92C16.5069 104.96 15.36 103.81 15.36 102.4V38.3999H112.64V69.3099C114.58 71.0507 116.314 73.0114 117.76 75.1899V25.5999C117.76 21.3657 114.314 17.9199 110.08 17.9199H17.92ZM20.48 25.5999C21.8931 25.5999 23.04 26.7468 23.04 28.1599C23.04 29.573 21.8931 30.7199 20.48 30.7199C19.0669 30.7199 17.92 29.573 17.92 28.1599C17.92 26.7468 19.0669 25.5999 20.48 25.5999ZM28.16 25.5999C29.5731 25.5999 30.72 26.7468 30.72 28.1599C30.72 29.573 29.5731 30.7199 28.16 30.7199C26.7469 30.7199 25.6 29.573 25.6 28.1599C25.6 26.7468 26.7469 25.5999 28.16 25.5999ZM35.84 25.5999C37.2531 25.5999 38.4 26.7468 38.4 28.1599C38.4 29.573 37.2531 30.7199 35.84 30.7199C34.4269 30.7199 33.28 29.573 33.28 28.1599C33.28 26.7468 34.4269 25.5999 35.84 25.5999ZM92.16 66.5599C78.0518 66.5599 66.56 78.0518 66.56 92.1599C66.56 106.268 78.0518 117.76 92.16 117.76C98.295 117.76 103.929 115.581 108.345 111.965L123.63 127.25L127.25 123.63L111.965 108.345C115.581 103.929 117.76 98.295 117.76 92.1599C117.76 78.0518 106.268 66.5599 92.16 66.5599ZM92.16 71.6799C103.501 71.6799 112.64 80.8188 112.64 92.1599C112.64 103.501 103.501 112.64 92.16 112.64C80.8189 112.64 71.68 103.501 71.68 92.1599C71.68 80.8188 80.8189 71.6799 92.16 71.6799Z" fill="#222324"/>
</svg>
